<svg xmlns="http://www.w3.org/2000/svg" fill="none" viewBox="0 0 24 24">
  <path fill="currentColor" fill-rule="evenodd" d="M12 22.748c-5.937 0-10.75-4.8129-10.75-10.75S6.063 1.248 12 1.248s10.75 4.813 10.75 10.75-4.8129 10.75-10.75 10.75m4.48-13.3724c.4845-.265.6625-.8726.3975-1.3572s-.8726-.6625-1.3571-.3975c-1.8287 1-3.3408 2.93-4.3575 4.4867a26.4 26.4 0 0 0-.9535 1.5815 9.1 9.1 0 0 0-.689-.6019 10 10 0 0 0-.7098-.512l-.315-.1957c-.4797-.2736-1.0905-.1065-1.364.3733-.2736.4796-.1067 1.0901.3728 1.3639l.2103.1315a8 8 0 0 1 .5653.4079c.4575.3617.9513.8359 1.262 1.3554.1907.3188.5424.5056.9133.4852a1 1 0 0 0 .8543-.5828l.0983-.2054c.0677-.1384.1691-.3408.3011-.5901a24.6 24.6 0 0 1 1.1284-1.9172c.9834-1.5057 2.2712-3.0757 3.6426-3.8256" clip-rule="evenodd"/>
</svg>
